<?xml version="1.0" encoding="UTF-8"?>
<svg width="600" height="400" viewBox="0 0 600 400" fill="none" xmlns="http://www.w3.org/2000/svg">
    <!-- Background circle -->
    <circle cx="300" cy="200" r="180" fill="#E0E7FF" opacity="0.5"/>
    
    <!-- Laptop -->
    <rect x="200" y="150" width="200" height="120" rx="5" fill="#F3F4F6" stroke="#9CA3AF" stroke-width="2"/>
    <rect x="240" y="160" width="120" height="80" fill="#2563EB" rx="2"/>
    <rect x="270" y="270" width="60" height="5" fill="#D1D5DB" rx="2.5"/>
    <rect x="280" y="275" width="40" height="10" fill="#E5E7EB" rx="2"/>
    
    <!-- Server Rack -->
    <rect x="400" y="100" width="100" height="180" fill="#1F2937" rx="3"/>
    <rect x="410" y="120" width="80" height="10" fill="#4B5563" rx="2"/>
    <rect x="410" y="140" width="80" height="10" fill="#4B5563" rx="2"/>
    <rect x="410" y="160" width="80" height="10" fill="#4B5563" rx="2"/>
    <rect x="410" y="180" width="80" height="10" fill="#4B5563" rx="2"/>
    
    <!-- Cloud Elements -->
    <path d="M100 180C100 200 80 220 60 220C40 220 20 200 20 180C20 160 40 140 60 140C60 100 100 100 100 140C120 140 140 160 140 180C140 200 120 220 100 220C80 220 80 200 100 180Z" fill="#DBEAFE"/>
    
    <!-- Abstract Elements -->
    <circle cx="500" cy="100" r="15" fill="#60A5FA" opacity="0.7"/>
    <circle cx="80" cy="80" r="10" fill="#818CF8" opacity="0.7"/>
    <circle cx="520" cy="300" r="8" fill="#818CF8" opacity="0.7"/>
    
    <!-- Connection Lines -->
    <line x1="300" y1="220" x2="400" y2="150" stroke="#93C5FD" stroke-width="2" stroke-dasharray="4 4"/>
    <line x1="300" y1="240" x2="200" y2="300" stroke="#93C5FD" stroke-width="2" stroke-dasharray="4 4"/>
</svg>
